<svg width="336" height="91" viewBox="0 0 336 91" xmlns="http://www.w3.org/2000/svg"><g id="svgGroup" stroke-linecap="round" fill-rule="evenodd" font-size="9pt" stroke="#000" stroke-width="0.25mm" fill="none" style="stroke:#000;stroke-width:0.25mm;fill:none"><path d="M 195.9 76.3 L 195.9 61.3 A 17.917 17.917 0 0 1 192.9 65.655 A 14.792 14.792 0 0 1 188.3 68.95 A 24.705 24.705 0 0 1 182.175 70.884 A 21.619 21.619 0 0 1 178.5 71.2 A 26.155 26.155 0 0 1 173.161 70.689 Q 168.141 69.641 164.95 66.45 A 15.029 15.029 0 0 1 161.314 60.342 Q 160.548 57.979 160.309 55.111 A 32.601 32.601 0 0 1 160.2 52.4 L 160.2 19.9 L 162.1 19.9 L 162.1 53.4 A 21.308 21.308 0 0 0 162.644 58.351 A 14.704 14.704 0 0 0 166.05 64.95 A 12.102 12.102 0 0 0 171.089 68.195 Q 173.044 68.886 175.45 69.145 A 28.542 28.542 0 0 0 178.5 69.3 A 21.648 21.648 0 0 0 183.454 68.755 A 17.555 17.555 0 0 0 187.55 67.25 Q 191.5 65.2 193.65 61.55 A 15.665 15.665 0 0 0 195.795 53.82 A 18.593 18.593 0 0 0 195.8 53.4 L 195.8 32.7 Q 195.8 26.6 196.45 23.5 A 7.52 7.52 0 0 1 197.24 21.338 A 6.036 6.036 0 0 1 199.6 19 L 200.4 20.6 A 5.084 5.084 0 0 0 198.891 22.508 Q 198.026 24.283 197.789 27.223 A 29.723 29.723 0 0 0 197.7 29.6 L 197.7 76.1 Q 197.7 82.2 195.3 85.7 Q 193.338 88.561 189.172 90.286 A 24.224 24.224 0 0 1 187.2 91 L 186.6 89.2 A 14.783 14.783 0 0 0 189.91 87.984 A 10.865 10.865 0 0 0 193.5 85.05 Q 195.9 82 195.9 76.3 Z M 334.1 70 L 334.1 62.2 A 16.522 16.522 0 0 1 322.259 70.674 A 25.273 25.273 0 0 1 317.5 71.1 Q 311.363 71.1 307.288 69.199 A 13.319 13.319 0 0 1 303.25 66.35 Q 299.446 62.379 298.822 55.299 A 33.041 33.041 0 0 1 298.7 52.4 L 298.7 19.9 L 300.6 19.9 L 300.6 52.4 Q 300.6 57.977 302.449 61.752 A 13.044 13.044 0 0 0 304.5 64.8 A 11.487 11.487 0 0 0 308.908 67.739 Q 310.753 68.462 313.063 68.801 A 30.654 30.654 0 0 0 317.5 69.1 A 20.75 20.75 0 0 0 323.082 68.384 A 16.015 16.015 0 0 0 329.4 65 A 13.478 13.478 0 0 0 334.027 55.681 A 18.817 18.817 0 0 0 334.1 54 L 334.1 19.9 L 336 19.9 L 336 70 L 334.1 70 Z M 0 90.3 L 0 19.9 L 1.9 19.9 L 1.9 25.9 Q 4.5 22.3 8.85 20.7 A 26 26 0 0 1 14.495 19.289 A 22.624 22.624 0 0 1 17.4 19.1 A 30.593 30.593 0 0 1 23.205 19.614 Q 26.461 20.244 28.98 21.646 A 14.918 14.918 0 0 1 32.65 24.5 Q 37.7 29.9 37.7 38.6 L 37.7 52.4 Q 37.7 59.828 34.202 64.425 A 14.915 14.915 0 0 1 32.45 66.35 Q 27.2 71.2 18.8 71.2 A 26.65 26.65 0 0 1 12.49 70.506 A 15.318 15.318 0 0 1 1.9 62.3 L 1.9 91 L 0 90.3 Z M 45.1 56.6 L 45.1 36.1 A 20.85 20.85 0 0 1 45.724 30.85 A 14.479 14.479 0 0 1 50.15 23.5 A 17.261 17.261 0 0 1 58.066 19.556 A 25.16 25.16 0 0 1 63.5 19 A 24.893 24.893 0 0 1 68.747 19.52 Q 73.389 20.521 76.45 23.45 A 14.609 14.609 0 0 1 80.599 30.987 A 21.87 21.87 0 0 1 81.1 35.8 L 81.1 45.3 L 47 47 L 47 56.8 A 15.324 15.324 0 0 0 47.451 60.633 A 10.369 10.369 0 0 0 51 66.25 Q 54.988 69.49 61.362 69.5 A 25.052 25.052 0 0 0 61.4 69.5 A 26.93 26.93 0 0 0 66.306 69.031 A 33.412 33.412 0 0 0 69.4 68.3 A 38.085 38.085 0 0 0 76.609 65.392 A 43.019 43.019 0 0 0 77.7 64.8 L 78.6 66.5 A 27.28 27.28 0 0 1 72.705 69.308 A 32.508 32.508 0 0 1 70.4 70 Q 65.8 71.2 61.2 71.2 A 24.291 24.291 0 0 1 56.374 70.749 Q 52.271 69.917 49.45 67.55 A 11.614 11.614 0 0 1 45.712 61.562 Q 45.176 59.616 45.11 57.276 A 23.658 23.658 0 0 1 45.1 56.6 Z M 121.8 52 L 121.8 39.2 A 30.22 30.22 0 0 1 122.308 33.476 Q 122.954 30.131 124.421 27.537 A 15.429 15.429 0 0 1 127 24.15 A 17.58 17.58 0 0 1 137.79 19.139 A 23.945 23.945 0 0 1 140.4 19 A 29.155 29.155 0 0 1 148.892 20.313 A 37.674 37.674 0 0 1 153.8 22.2 L 153.1 24.2 A 31.512 31.512 0 0 0 147.166 21.831 A 24.266 24.266 0 0 0 140.6 20.9 A 19.45 19.45 0 0 0 134.691 21.761 A 16.038 16.038 0 0 0 128.5 25.4 A 14.373 14.373 0 0 0 124.554 32.007 Q 123.874 34.336 123.735 37.14 A 29.648 29.648 0 0 0 123.7 38.6 L 123.7 53.1 A 27.257 27.257 0 0 0 123.698 53.424 Q 123.698 61.575 128.65 65.35 Q 133.553 69.088 141.237 69.197 A 32.718 32.718 0 0 0 141.7 69.2 Q 147.6 69.2 153.5 67.5 L 154 69.4 A 50.27 50.27 0 0 1 145.664 70.844 A 43.56 43.56 0 0 1 142 71 A 40.185 40.185 0 0 1 138.222 70.833 Q 135.257 70.552 133 69.8 A 20.531 20.531 0 0 1 129.069 68.02 Q 126.589 66.542 125.017 64.464 A 12.456 12.456 0 0 1 124.45 63.65 A 14.733 14.733 0 0 1 122.759 59.811 Q 122.22 57.955 121.984 55.716 A 35.521 35.521 0 0 1 121.8 52 Z M 253 53.1 L 253 44.8 A 19.474 19.474 0 0 1 253.61 39.751 A 12.239 12.239 0 0 1 260.3 31.6 Q 263.702 29.989 268.467 29.82 A 32.021 32.021 0 0 1 269.6 29.8 A 38.157 38.157 0 0 1 277.426 30.639 A 45.007 45.007 0 0 1 280.15 31.3 Q 285.6 32.8 289.6 35.4 A 15.758 15.758 0 0 0 288.742 30.104 A 13.636 13.636 0 0 0 285.35 24.85 Q 281.104 20.704 270.522 20.999 A 54.263 54.263 0 0 0 270.5 21 L 270.7 19.1 Q 279.34 19.1 283.889 21.57 A 12.058 12.058 0 0 1 284.85 22.15 A 16.717 16.717 0 0 1 287.643 24.464 Q 289.374 26.275 290.145 28.402 A 10.135 10.135 0 0 1 290.45 29.4 Q 291.164 32.255 291.392 36.218 A 69.329 69.329 0 0 1 291.5 40.2 L 291.5 70 A 389.255 389.255 0 0 1 286.475 70.481 Q 280.236 71.035 276.697 71.093 A 48.395 48.395 0 0 1 275.9 71.1 Q 268.451 71.1 263.165 69.137 A 21.447 21.447 0 0 1 259.2 67.2 Q 253.762 63.779 253.094 55.512 A 29.951 29.951 0 0 1 253 53.1 Z M 91.1 70 L 91.1 19.9 L 93 19.9 L 93 25.2 A 19.253 19.253 0 0 1 104.226 19.435 A 27.453 27.453 0 0 1 108.6 19.1 Q 112.3 19.1 116.1 19.9 L 115.5 22 Q 112.1 21 108.5 21 A 23.741 23.741 0 0 0 103.386 21.534 A 20.42 20.42 0 0 0 100.75 22.3 Q 97.2 23.6 95.1 25.7 Q 93.414 27.386 93.082 29.201 A 4.981 4.981 0 0 0 93 30.1 L 93 70 L 91.1 70 Z M 239.4 70 L 239.4 0 L 241.3 0 L 241.3 70 L 239.4 70 Z M 1.9 30.3 L 1.9 54.4 A 16.468 16.468 0 0 0 2.581 59.258 A 12.781 12.781 0 0 0 6.55 65.3 A 15.802 15.802 0 0 0 12.987 68.581 Q 15.363 69.199 18.17 69.286 A 30.082 30.082 0 0 0 19.1 69.3 Q 23 69.3 26.8 67.75 A 14.61 14.61 0 0 0 32.786 63.192 A 17.593 17.593 0 0 0 33.2 62.65 A 12.806 12.806 0 0 0 35.262 58.143 Q 35.8 55.994 35.8 53.4 L 35.8 38.2 A 25.656 25.656 0 0 0 35.377 33.365 Q 34.275 27.632 30.3 24.85 A 21.351 21.351 0 0 0 19.186 21.053 A 26.545 26.545 0 0 0 17.5 21 Q 13 21 8.3 23.05 A 11.199 11.199 0 0 0 2.126 29.657 A 15.091 15.091 0 0 0 1.9 30.3 Z M 254.9 45.1 L 254.9 53.8 Q 254.9 59.503 257.362 62.941 A 10.741 10.741 0 0 0 260.5 65.85 A 20.75 20.75 0 0 0 265.937 68.147 Q 268.504 68.85 271.568 69.124 A 46.357 46.357 0 0 0 275.7 69.3 A 71.344 71.344 0 0 0 279.824 69.17 Q 284.088 68.922 289.6 68.2 L 289.6 37.7 Q 286.814 35.71 282.635 34.164 A 48.736 48.736 0 0 0 280.4 33.4 A 39.782 39.782 0 0 0 274.146 31.945 A 32.281 32.281 0 0 0 269.5 31.6 Q 263.54 31.6 259.639 34.291 A 13.228 13.228 0 0 0 258.95 34.8 A 9.937 9.937 0 0 0 255.675 39.634 Q 254.9 41.994 254.9 45.1 Z M 47 36 L 47 45.2 L 79.2 43.4 L 79.2 35.7 A 21.094 21.094 0 0 0 78.811 31.505 Q 77.856 26.803 74.55 24.35 Q 69.9 20.9 63.4 20.9 Q 56.7 20.9 51.85 24.55 A 11.603 11.603 0 0 0 47.599 31.029 Q 47.075 32.979 47.009 35.322 A 24.226 24.226 0 0 0 47 36 Z" vector-effect="non-scaling-stroke"/></g></svg>